<?xml version="1.0" standalone="no"?><!DOCTYPE svg PUBLIC "-//W3C//DTD SVG 1.1//EN" "http://www.w3.org/Graphics/SVG/1.1/DTD/svg11.dtd"><svg class="icon" width="200px" height="200.00px" viewBox="0 0 1024 1024" version="1.1" xmlns="http://www.w3.org/2000/svg"><path fill="#d4237a" d="M708.586667 684.650667l174.08 174.08a32 32 0 0 1-45.269334 45.248l-176-176A350.464 350.464 0 0 1 448 800c-194.410667 0-352-157.589333-352-352S253.589333 96 448 96 800 253.589333 800 448a350.72 350.72 0 0 1-91.413333 236.650667zM448 736c159.061333 0 288-128.938667 288-288S607.061333 160 448 160 160 288.938667 160 448 288.938667 736 448 736z" /></svg>